<svg xmlns="http://www.w3.org/2000/svg" viewBox="0 0 100 90"><title>icon_coding</title><path d="M88,3a9,9,0,0,1,9,9V78a9,9,0,0,1-9,9H12a9,9,0,0,1-9-9V12a9,9,0,0,1,9-9H88m0-3H12A12,12,0,0,0,0,12V78A12,12,0,0,0,12,90H88a12,12,0,0,0,12-12V12A12,12,0,0,0,88,0h0Z" style="fill:#3498db"/><line x1="0.83" y1="19.33" x2="100" y2="19.33" style="fill:none;stroke:#3498db;stroke-miterlimit:10;stroke-width:3px"/><circle cx="82.78" cy="11.17" r="2.67" style="fill:#3498db"/><circle cx="76.33" cy="11.17" r="2.67" style="fill:#3498db"/><circle cx="89.23" cy="11.17" r="2.67" style="fill:#3498db"/><path d="M17.24,27.74v5.95a0.91,0.91,0,0,0,.27.64L36.1,52.93a0.91,0.91,0,0,1,0,1.29L17.5,72.81a0.91,0.91,0,0,0-.27.64v6a0.91,0.91,0,0,0,1.55.64L44.63,54.23a0.91,0.91,0,0,0,0-1.29L18.79,27.1A0.91,0.91,0,0,0,17.24,27.74Z" style="fill:#3498db"/><rect x="39.76" y="74.46" width="43" height="5.88" rx="0.64" ry="0.64" style="fill:#3498db"/></svg>