<svg xmlns="http://www.w3.org/2000/svg" viewBox="0 0 165 201.02"><defs><style>.a{fill:#262222;}</style></defs><title>logo</title><path class="a" d="M139,26L139,25.81l-3.64-14.21-0.5-.06L130.27,25.9,105.55,90.41a4.39,4.39,0,0,1-4.21,2.42H98.49a4.39,4.39,0,0,1-4.21-2.42L69.59,26l-0.06-.18L65.15,11.48l-0.5.06L60.73,25.9,39.66,90.28a4.33,4.33,0,0,1-4.26,2.55H34.33c-2.87,0-5-2.08-4.25-4.22L59,2A4.34,4.34,0,0,1,63.22-.51h2.72a4.39,4.39,0,0,1,4.21,2.43L96.46,71.1l3.17,9.81h0.5l3.08-9.81L129.76,1.91A4.4,4.4,0,0,1,134-.51h2.81A4.34,4.34,0,0,1,141,2l28.89,86.58c0.71,2.14-1.38,4.22-4.25,4.22H164.5a4.34,4.34,0,0,1-4.25-2.55Z" transform="translate(-17.5 0.51)"/><path class="a" d="M61,174L61,174.19l3.64,14.21,0.5,0.06,4.58-14.36,24.72-64.51a4.39,4.39,0,0,1,4.21-2.42h2.85a4.39,4.39,0,0,1,4.21,2.42L130.41,174l0.06,0.18,4.39,14.33,0.5-.06,3.91-14.36,21.07-64.37a4.33,4.33,0,0,1,4.26-2.55h1.08c2.87,0,5,2.08,4.25,4.22L141,198a4.34,4.34,0,0,1-4.25,2.54h-2.72a4.39,4.39,0,0,1-4.21-2.43L103.54,128.9l-3.17-9.81h-0.5l-3.08,9.81L70.24,198.09A4.4,4.4,0,0,1,66,200.51H63.22A4.34,4.34,0,0,1,59,198L30.08,111.39c-0.71-2.14,1.38-4.22,4.25-4.22H35.5a4.34,4.34,0,0,1,4.25,2.55Z" transform="translate(-17.5 0.51)"/><rect class="a" y="98.01" width="165" height="5" rx="2.5" ry="2.5"/></svg>